<mxfile host="app.diagrams.net" modified="2024-05-27T17:43:26.362Z" agent="Mozilla/5.0 (Windows NT 10.0; Win64; x64) AppleWebKit/537.36 (KHTML, like Gecko) Chrome/125.0.0.0 Safari/537.36" etag="bhEWHUSTlyWDEbp5TGD1" version="24.4.9" type="github">
  <diagram name="PÃ¡gina-1" id="18daB8q-Yg5n8QqRO236">
    <mxGraphModel dx="3088" dy="1907" grid="1" gridSize="10" guides="1" tooltips="1" connect="1" arrows="1" fold="1" page="1" pageScale="1" pageWidth="827" pageHeight="1169" math="0" shadow="0">
      <root>
        <mxCell id="0" />
        <mxCell id="1" parent="0" />
        <mxCell id="p18iTTl0X1TvQ4x8i6nz-1" value="&lt;p style=&quot;margin:0px;margin-top:4px;margin-left:10px;text-align:left;&quot;&gt;&lt;b&gt;ibd&lt;/b&gt;&amp;nbsp;See list of Doctors&lt;/p&gt;" style="html=1;shape=mxgraph.sysml.package;labelX=138;align=left;spacingLeft=10;html=1;overflow=fill;whiteSpace=wrap;recursiveResize=0;" vertex="1" parent="1">
          <mxGeometry x="-1180" y="-718" width="692" height="267" as="geometry" />
        </mxCell>
        <mxCell id="p18iTTl0X1TvQ4x8i6nz-2" style="rounded=0;orthogonalLoop=1;jettySize=auto;html=1;" edge="1" parent="1" source="p18iTTl0X1TvQ4x8i6nz-5" target="p18iTTl0X1TvQ4x8i6nz-19">
          <mxGeometry relative="1" as="geometry" />
        </mxCell>
        <mxCell id="p18iTTl0X1TvQ4x8i6nz-3" value="" style="group" vertex="1" connectable="0" parent="1">
          <mxGeometry x="-1113" y="-552" width="120" height="71" as="geometry" />
        </mxCell>
        <mxCell id="p18iTTl0X1TvQ4x8i6nz-4" value="&lt;b&gt;D1: Filter details&lt;/b&gt;" style="rounded=0;whiteSpace=wrap;html=1;fillColor=none;container=0;" vertex="1" parent="p18iTTl0X1TvQ4x8i6nz-3">
          <mxGeometry y="11" width="120" height="60" as="geometry" />
        </mxCell>
        <mxCell id="p18iTTl0X1TvQ4x8i6nz-5" value="" style="html=1;shape=mxgraph.sysml.port;sysMLPortType=flowN;" vertex="1" parent="p18iTTl0X1TvQ4x8i6nz-3">
          <mxGeometry x="50" width="20" height="20" as="geometry" />
        </mxCell>
        <mxCell id="p18iTTl0X1TvQ4x8i6nz-6" value="values of fields" style="text;html=1;align=center;verticalAlign=middle;resizable=0;points=[];autosize=1;strokeColor=none;fillColor=none;" vertex="1" parent="1">
          <mxGeometry x="-1050" y="-590" width="100" height="30" as="geometry" />
        </mxCell>
        <mxCell id="p18iTTl0X1TvQ4x8i6nz-7" value="" style="endArrow=none;html=1;rounded=0;align=center;verticalAlign=top;endFill=0;labelBackgroundColor=none;endSize=2;" edge="1" parent="1" source="p18iTTl0X1TvQ4x8i6nz-23" target="p18iTTl0X1TvQ4x8i6nz-8">
          <mxGeometry relative="1" as="geometry">
            <mxPoint x="-791" y="-656" as="sourcePoint" />
          </mxGeometry>
        </mxCell>
        <mxCell id="p18iTTl0X1TvQ4x8i6nz-8" value="" style="ellipse;html=1;fontSize=11;align=center;fillColor=none;points=[];aspect=fixed;resizable=0;verticalAlign=bottom;labelPosition=center;verticalLabelPosition=top;flipH=1;" vertex="1" parent="1">
          <mxGeometry x="-843" y="-660" width="8" height="8" as="geometry" />
        </mxCell>
        <mxCell id="p18iTTl0X1TvQ4x8i6nz-9" value="" style="endArrow=none;html=1;rounded=0;align=center;verticalAlign=top;endFill=0;labelBackgroundColor=none;endSize=2;" edge="1" parent="1" source="p18iTTl0X1TvQ4x8i6nz-20" target="p18iTTl0X1TvQ4x8i6nz-10">
          <mxGeometry relative="1" as="geometry" />
        </mxCell>
        <mxCell id="p18iTTl0X1TvQ4x8i6nz-10" value="" style="shape=requiredInterface;html=1;fontSize=11;align=center;fillColor=none;points=[];aspect=fixed;resizable=0;verticalAlign=bottom;labelPosition=center;verticalLabelPosition=top;flipH=1;rotation=0;" vertex="1" parent="1">
          <mxGeometry x="-850" y="-661" width="5" height="10" as="geometry" />
        </mxCell>
        <mxCell id="p18iTTl0X1TvQ4x8i6nz-11" value="Validate" style="text;html=1;align=center;verticalAlign=middle;resizable=0;points=[];autosize=1;strokeColor=none;fillColor=none;" vertex="1" parent="1">
          <mxGeometry x="-869" y="-652" width="60" height="26" as="geometry" />
        </mxCell>
        <mxCell id="p18iTTl0X1TvQ4x8i6nz-12" value="" style="endArrow=none;html=1;rounded=0;align=center;verticalAlign=top;endFill=0;labelBackgroundColor=none;endSize=2;" edge="1" parent="1" source="p18iTTl0X1TvQ4x8i6nz-27" target="p18iTTl0X1TvQ4x8i6nz-13">
          <mxGeometry relative="1" as="geometry">
            <mxPoint x="-732" y="-565" as="sourcePoint" />
          </mxGeometry>
        </mxCell>
        <mxCell id="p18iTTl0X1TvQ4x8i6nz-13" value="" style="ellipse;html=1;fontSize=11;align=center;fillColor=none;points=[];aspect=fixed;resizable=0;verticalAlign=bottom;labelPosition=center;verticalLabelPosition=top;flipH=1;" vertex="1" parent="1">
          <mxGeometry x="-689" y="-578" width="8" height="8" as="geometry" />
        </mxCell>
        <mxCell id="p18iTTl0X1TvQ4x8i6nz-14" value="" style="endArrow=none;html=1;rounded=0;align=center;verticalAlign=top;endFill=0;labelBackgroundColor=none;endSize=2;" edge="1" parent="1" source="p18iTTl0X1TvQ4x8i6nz-24" target="p18iTTl0X1TvQ4x8i6nz-15">
          <mxGeometry relative="1" as="geometry" />
        </mxCell>
        <mxCell id="p18iTTl0X1TvQ4x8i6nz-15" value="" style="shape=requiredInterface;html=1;fontSize=11;align=center;fillColor=none;points=[];aspect=fixed;resizable=0;verticalAlign=bottom;labelPosition=center;verticalLabelPosition=top;flipH=1;rotation=90;" vertex="1" parent="1">
          <mxGeometry x="-687.5" y="-588" width="5" height="10" as="geometry" />
        </mxCell>
        <mxCell id="p18iTTl0X1TvQ4x8i6nz-16" value="Create" style="text;html=1;align=center;verticalAlign=middle;resizable=0;points=[];autosize=1;strokeColor=none;fillColor=none;" vertex="1" parent="1">
          <mxGeometry x="-741.5" y="-588" width="54" height="26" as="geometry" />
        </mxCell>
        <mxCell id="p18iTTl0X1TvQ4x8i6nz-17" value="" style="group" vertex="1" connectable="0" parent="1">
          <mxGeometry x="-1125" y="-684" width="161" height="69" as="geometry" />
        </mxCell>
        <mxCell id="p18iTTl0X1TvQ4x8i6nz-18" value="&lt;b&gt;Fd1: Filter doctors&lt;/b&gt;" style="rounded=0;whiteSpace=wrap;html=1;fillColor=none;container=0;" vertex="1" parent="p18iTTl0X1TvQ4x8i6nz-17">
          <mxGeometry width="150" height="60" as="geometry" />
        </mxCell>
        <mxCell id="p18iTTl0X1TvQ4x8i6nz-19" value="" style="html=1;shape=mxgraph.sysml.port;sysMLPortType=flowN;container=0;" vertex="1" parent="p18iTTl0X1TvQ4x8i6nz-17">
          <mxGeometry x="62" y="49" width="20" height="20" as="geometry" />
        </mxCell>
        <mxCell id="p18iTTl0X1TvQ4x8i6nz-20" value="" style="html=1;rounded=0;container=0;" vertex="1" parent="p18iTTl0X1TvQ4x8i6nz-17">
          <mxGeometry x="139" y="20" width="22" height="20" as="geometry" />
        </mxCell>
        <mxCell id="p18iTTl0X1TvQ4x8i6nz-21" value="" style="group" vertex="1" connectable="0" parent="1">
          <mxGeometry x="-777" y="-686" width="178" height="69" as="geometry" />
        </mxCell>
        <mxCell id="p18iTTl0X1TvQ4x8i6nz-22" value="&lt;b&gt;Dc1: Doctor controller&lt;/b&gt;" style="rounded=0;whiteSpace=wrap;html=1;fillColor=none;container=0;" vertex="1" parent="p18iTTl0X1TvQ4x8i6nz-21">
          <mxGeometry x="12" width="166" height="60" as="geometry" />
        </mxCell>
        <mxCell id="p18iTTl0X1TvQ4x8i6nz-23" value="" style="html=1;rounded=0;fillColor=default;" vertex="1" parent="p18iTTl0X1TvQ4x8i6nz-21">
          <mxGeometry y="20" width="22" height="20" as="geometry" />
        </mxCell>
        <mxCell id="p18iTTl0X1TvQ4x8i6nz-24" value="" style="html=1;rounded=0;container=0;" vertex="1" parent="p18iTTl0X1TvQ4x8i6nz-21">
          <mxGeometry x="81" y="49" width="22" height="20" as="geometry" />
        </mxCell>
        <mxCell id="p18iTTl0X1TvQ4x8i6nz-25" value="" style="group" vertex="1" connectable="0" parent="1">
          <mxGeometry x="-768" y="-546" width="166" height="69" as="geometry" />
        </mxCell>
        <mxCell id="p18iTTl0X1TvQ4x8i6nz-26" value="&lt;b&gt;Rs1: Result set&lt;/b&gt;" style="rounded=0;whiteSpace=wrap;html=1;fillColor=none;container=0;" vertex="1" parent="p18iTTl0X1TvQ4x8i6nz-25">
          <mxGeometry y="9" width="166" height="60" as="geometry" />
        </mxCell>
        <mxCell id="p18iTTl0X1TvQ4x8i6nz-27" value="" style="html=1;rounded=0;fillColor=default;" vertex="1" parent="p18iTTl0X1TvQ4x8i6nz-25">
          <mxGeometry x="72" width="22" height="20" as="geometry" />
        </mxCell>
      </root>
    </mxGraphModel>
  </diagram>
</mxfile>
